<svg xmlns="http://www.w3.org/2000/svg" viewBox="0 0 240 240" role="img" aria-label="영유아다문화교육협의회 로고">
  <defs>
    <path id="ringTop" d="M 50 120 A 70 70 0 0 1 190 120" fill="none" />
    <path id="ringBottom" d="M 50 120 A 70 70 0 0 0 190 120" fill="none" />
  </defs>
  <rect x="20" y="20" width="200" height="200" rx="8" transform="rotate(45 120 120)" fill="#5B9E2E" />
  <circle cx="120" cy="120" r="78" fill="#FFFFFF" />
  <text fill="#FFFFFF" font-family="'Noto Sans KR', sans-serif" font-size="14" font-weight="700" letter-spacing="2">
    <textPath href="#ringTop" startOffset="50%" text-anchor="middle">영유아 다문화교육 협의회</textPath>
  </text>
  <text fill="#FFFFFF" font-family="'Noto Sans KR', sans-serif" font-size="14" font-weight="700" letter-spacing="2">
    <textPath href="#ringBottom" startOffset="50%" text-anchor="middle">영유아 다문화교육 협의회</textPath>
  </text>
  <circle cx="120" cy="108" r="22" fill="#F3C89A" />
  <path d="M 98 106 Q 98 82 120 82 Q 142 82 142 106 Q 142 100 135 94 Q 128 90 120 90 Q 112 90 105 94 Q 98 100 98 106 Z" fill="#4A3A2A" />
  <path d="M 113 112 Q 116 115 120 115 Q 124 115 127 112" stroke="#2C2118" stroke-width="1.5" fill="none" stroke-linecap="round" />
  <path d="M 72 168 Q 72 138 120 138 Q 168 138 168 168 L 168 180 Q 120 180 72 180 Z" fill="#7FB847" />
  <circle cx="96" cy="155" r="10" fill="#2C2118" />
  <circle cx="120" cy="155" r="10" fill="#F5E6C8" />
  <circle cx="144" cy="155" r="10" fill="#8B4513" />
  <path d="M 88 162 Q 96 172 100 165" stroke="#E5A533" stroke-width="5" fill="none" stroke-linecap="round" />
  <path d="M 140 165 Q 144 172 152 162" stroke="#E5A533" stroke-width="5" fill="none" stroke-linecap="round" />
</svg>
